<?xml version="1.0" encoding="UTF-8"?>
<svg id="Warstwa_1" data-name="Warstwa 1" xmlns="http://www.w3.org/2000/svg" viewBox="0 0 414.75 414.75">
  <defs>
    <style>
      .cls-1 {
        fill: #fff;
      }
    </style>
  </defs>
  <path class="cls-1" d="M207.38,0C92.84,0,0,92.84,0,207.38s92.84,207.38,207.38,207.38,207.38-92.84,207.38-207.38S321.91,0,207.38,0ZM207.37,402.97c-108.02,0-195.59-87.57-195.59-195.59S99.35,11.78,207.37,11.78s195.59,87.57,195.59,195.59-87.57,195.59-195.59,195.59Z"/>
  <g>
    <path class="cls-1" d="M235.97,132.07c5.49-2.52,10.31-6.75,12.8-12.28,2.06-4.52,3.99-10.22,2.57-15.25-.94-3.07-3.99-5.5-7.26-4.53l-.14.04c-4.27,1.49-3.46,6.9-4.53,10.74-.7,2.95-2.38,5.53-4.56,7.61-2.11,2.16-4.81,3.63-7.58,4.82-3.61,1.38-6.86,5.05-4.61,8.8,3.06,3.95,9.54,1.69,13.32.05Z"/>
    <g>
      <path class="cls-1" d="M289.24,100.32c-6.72-7.35-8.63-18.44-17.07-24.82-13.31-15.06-38.13-13.16-54.29-3.6-4,1.92-7.41,8.25-12.33,6.16-8.25-6.95-19.02-12.02-30.56-12.91l-.18-.02c-45.93-1.59-35.32,31.4-49.67,37.65-24.42,2.85-47.63,19.46-48.31,45.66-2.07,9.47,3.99,19.18,2.63,28.04-12.4,8.53-18.71,22.1-21.27,36.96-3.87,13.31-.13,26.31,6.57,37.71-2.09,15.05,2.93,31.38,12.36,43.25,9.06,13.44,26.06,14.7,40.16,17.56,4.17,4.78,5.4,12.39,9.73,17.51,12.7,19.98,44.16,24.86,64.08,14.19,16.11-8.92,11.19-20.52,28.53-2.63,18.04,14.51,49.9,11.31,65.88-4.92,7.55-6.39,5.19-21.07,13.19-24.24,49.8-7.69,70.94-72.06,53.29-114.78-2.69-6.08-6.82-11.6-12.04-15.9-6.95-5.21,5.84-18.07-.05-35.32-5.82-24.55-27.25-39.98-50.65-45.54ZM166.29,75.39l.17-.02c13.07-.99,28.54,4.33,34.6,16.45,1.51,4.35.85,9.5.99,14.14-.55,4.84,1.89,13.11-3.38,15.49-7.15,1.73-15.58-2.37-18.72-7.7-2.98-4-2.47-9.97-5.63-13.8-2.35-2.49-6.06-1.1-7.02,2.08-1.63,7.16,1.42,15.36,6.02,20.76,9.13,11.42,22.9,6.28,27.53,12.28.98,1.6,1.18,3.82,1.19,5.75,0,5.17.02,10.4,0,15.57.64,10.86-11.2,7.57-18.19,6.93-11.92-2.06-21.57-6.58-29.32-15.18-8.23-9.27-15.43-20.21-15.01-33.09-.91-17.62,7.75-37.51,26.77-39.67ZM77.12,193.6c3.38-7.4,14.56-5.96,17.12-13.22-.56-8.5-7.56-15.57-7.28-24.78-2.63-22.7,17.46-41.19,38.94-42.29l.13.02c5.81,2.44,2.9,11.69,5.67,16.6,7.78,27.86,34.41,44.88,62.84,43.98,12.29-.34,6.24,17.02,7.47,24.75-.83,12.25-25.68,5.1-34.04,5.52-17.04-.98-32.52-10.38-35.64-28.02-1.36-5.52.64-26.75-9.74-16.73-5.58,20.95,6.92,47.22,29,52.09,8.15,2.02,16.85,3.39,25.34,3.75,7.22,1.35,19.74-3.21,24.44,3.38,1.2,22.98,2.02,46.27,1.39,69.27-1.67,7.62-11.74,4.82-17.72,5.38-17.15,2.51-31.44-16.41-21.08-31.32,3.89-7.2,12.45-8.51,18.95-12.16,5.2-6.98-5.32-8.96-10.55-6.87-6.48,1.01-10.46,5.99-16.03,8.47-5.92,1.58-13.52.56-19.02-1.01-9.45-2.26-16.05-9.3-19.97-17.78-2.82-6.26-9.05-3.37-13.75-1.29-8.99,2.97-18.17,6.05-27.48,8.29-17.74-.51-5.83-37.84.99-46.03ZM192.46,329.57c-15.22,15.89-44.59,11.62-56.53-6.08-4.11-6.73-6.68-13.14-7.23-21.76-.62-5.05.83-13.52-3.16-16.81-1.86-1.41-4.83-.92-6.4,1.13-3.14,3.6-.62,10.02-4.32,13-3.97,1.79-9.07-.6-12.99-1.92-11.71-4.65-19.83-14.19-24.48-25.96-4.07-11.62-3.12-21.56,10.71-23.98,5.94-1.49,11.68-4.11,17.68-5.26h.14c4.39-.52,5.76,4.03,7.99,6.78,14.32,18.59,38.96,7.22,36.76,18.53-1.49,12.17,2.42,26.54,14.28,32.22,6.8,3.59,14.44,4.14,22.76,3.96,4.63.67,11.36-2.14,14.45,1.52,3.9,8.76-2.96,19.1-9.68,24.62ZM212.69,107.59c.03-4.78-.82-9.16-.59-13.69.28-4.33,3.77-6.74,6.91-9.25,5.2-4.16,11.17-7.25,17.85-8.24l.17-.03c6.43-.93,14.43-1.24,20.23,1.37,9.72,5.09,16.08,14.67,19.63,24.89,2.75,7.89,2.32,16.76-.29,24.71-2.89,9.86-7.59,18.64-15.9,24.56-11.1,8.48-23.26,12.62-37.89,12.19-14.01,1.05-10.22-6.2-10.12-16.24.05-13.33.54-26.94-.01-40.27ZM324.2,172.89c-5.75,8.25,2.01,12.68,8.38,16.49,31.32,27.04,11.93,91.2-22.46,107.87-22.68,12.44-10.91-6.84-22.37-7.42-9.42,1.24-1.91,23.68-6.2,30.92-8.08,22.04-42.19,24.73-57.78,9.6-13.15-10.1-9.15-18.55-9.71-33.06.34-14.53-1.49-28.96-1.06-43.52-1.3-23.84-.42-47.75-.66-71.62-.22-4.27.92-8.3,6.01-8.37,26.61,1.5,55.57-9.64,65.61-35.91,1.76-4.4,3.24-9.36,4.18-14.31.98-3.19.43-8.05,2.78-10.52l.09-.07c5.94-2.17,13.87,3.85,18.66,7.22,10.61,8.92,20.32,19.98,21.13,34.62.84,6.85-1.88,13.59-6.6,18.08Z"/>
      <path class="cls-1" d="M289.78,193.52c2.75-4.57,5.03-9.63,6.25-14.94,1.2-4.81,4.83-24.95-4.71-23l-.12.04c-9.11,3.01,4.2,25.63-22.95,43.96-8.94,5.69-19.18,6.47-30,6.59-4.13.14-8.78-.45-12.47,1.21-2.16,1.07-3.07,3.45-2.31,5.53,1.27,3.44,5.76,3.62,9.18,3.71,21.87.68,44.99-2.89,57.14-23.1Z"/>
      <path class="cls-1" d="M311.19,231.8c-2.64-2.91-2.88-9.99-8.26-8.74l-.12.04c-3.97,1.48-4.4,7.69-6.22,10.9-.92,1.83-2.03,3.65-3.2,5.17-8.44,11.64-27.67,15.16-39.28,5.99-16.12-12.66-31.4,1.25-11.9,6.47,15.17,6.23,13.38,28.09,3.73,38.22-2.43,2.82-6.98,5.06-11.13,5.99-3.12.87-7.2,1.28-9.19,3.83-1.5,1.93-.83,4.73,1.5,6.09,8.09,3.62,18.64-.76,25.24-5.33,4.76-3.88,6.76-9.89,8.94-15.48,1.31-4.01,2.44-8.56,2.69-13.04.25-4.17-1.42-10.76,5.09-9.82,13.2.96,26.33-5.74,34.17-16.12,6.39-5.99,19.17,6.06,24.03-3.3,1.92-9.21-12.05-6.07-16.09-10.86Z"/>
    </g>
  </g>
</svg>