<?xml version="1.0" standalone="no"?>
<!DOCTYPE svg PUBLIC "-//W3C//DTD SVG 1.1//EN" "http://www.w3.org/Graphics/SVG/1.1/DTD/svg11.dtd">
<svg width="2000" height="336" viewBox="0 0 2000 336" fill="none" xmlns="http://www.w3.org/2000/svg">
<path fill-rule="evenodd" clip-rule="evenodd" d="M22.6697 45.3125H294.712L362.723 113.281H419.398V67.9687H363.551C363.021 67.9687 362.512 67.7582 362.137 67.3834L294.712 0H394.432C419.848 0 440.799 19.929 442.069 45.3125C443.339 19.929 464.29 0 489.705 0H589.425L522 67.3834C521.625 67.7582 521.117 67.9687 520.586 67.9687H464.739V113.281C464.739 147.951 458.369 178.376 446.278 203.908H497.675C498.344 203.908 498.968 204.242 499.339 204.798L544.085 271.877H455.7C438.236 271.877 422.88 262.467 414.569 248.343C383.471 278.25 338.855 294.531 283.377 294.531C225.962 294.531 173.163 276.792 130.316 246.929C122.217 261.835 106.426 271.877 88.3851 271.877H0L44.7466 204.798C45.1176 204.242 45.7419 203.908 46.4104 203.908H82.5138C45.0659 160.582 22.6697 105.142 22.6697 45.3125ZM294.707 113.284C294.707 125.797 284.558 135.94 272.037 135.94C259.517 135.94 249.367 125.797 249.367 113.284C249.367 100.771 259.517 90.6276 272.037 90.6276C284.558 90.6276 294.707 100.771 294.707 113.284Z" fill="#3C51FF"/>
<path fill-rule="evenodd" clip-rule="evenodd" d="M1546.13 99.7281V271.562H1591.39V99.7281H1546.13ZM1551.55 70.5298C1556.36 75.2284 1562.14 77.5777 1568.87 77.5777C1575.59 77.5777 1581.33 75.2284 1586.08 70.5298C1590.89 65.7566 1593.3 60.0512 1593.3 53.4135C1593.3 46.8504 1590.89 41.2196 1586.08 36.521C1581.33 31.7478 1575.59 29.3612 1568.87 29.3612C1562.14 29.3612 1556.36 31.7478 1551.55 36.521C1546.8 41.2196 1544.43 46.8504 1544.43 53.4135C1544.43 60.0512 1546.8 65.7566 1551.55 70.5298ZM716.61 271.562H639.476V42.4501H717.248C739.135 42.4501 757.976 47.0369 773.771 56.2103C789.566 65.3091 801.714 78.398 810.214 95.4771C818.784 112.556 823.069 132.991 823.069 156.782C823.069 180.648 818.784 201.158 810.214 218.312C801.714 235.465 789.495 248.629 773.559 257.802C757.692 266.975 738.71 271.562 716.61 271.562ZM685.48 230.058H714.698C728.298 230.058 739.737 227.522 749.016 222.451C758.365 217.305 765.378 209.362 770.052 198.622C774.798 187.808 777.171 173.861 777.171 156.782C777.171 139.853 774.798 126.018 770.052 115.278C765.378 104.539 758.401 96.633 749.122 91.5616C739.843 86.4901 728.404 83.9543 714.804 83.9543H685.48V230.058ZM915.711 274.918C898.924 274.918 884.474 271.338 872.362 264.179C860.321 256.944 851.042 246.727 844.526 233.526C838.009 220.251 834.751 204.551 834.751 186.428C834.751 168.753 838.009 153.24 844.526 139.89C851.042 126.54 860.215 116.136 872.044 108.678C883.943 101.22 897.897 97.4907 913.905 97.4907C924.671 97.4907 934.694 99.318 943.972 102.972C953.322 106.552 961.468 111.959 968.409 119.194C975.421 126.428 980.875 135.527 984.771 146.49C988.667 157.379 990.615 170.132 990.615 184.75V197.839H879.481V197.951C879.481 206.453 880.968 213.799 883.943 219.99C886.989 226.18 891.274 230.953 896.799 234.309C902.324 237.665 908.876 239.343 916.455 239.343C921.484 239.343 926.088 238.598 930.267 237.106C934.446 235.614 938.023 233.377 940.997 230.394C943.972 227.41 946.239 223.756 947.797 219.43L989.658 222.339C987.533 232.929 983.177 242.177 976.59 250.083C970.074 257.914 961.645 264.03 951.303 268.43C941.033 272.756 929.169 274.918 915.711 274.918ZM884.049 151.413C881.305 156.504 879.796 162.135 879.523 168.305H948.01C948.01 161.444 946.593 155.365 943.76 150.07C940.927 144.775 936.996 140.636 931.967 137.652C927.008 134.595 921.236 133.066 914.648 133.066C907.778 133.066 901.686 134.744 896.374 138.1C891.133 141.381 887.024 145.819 884.049 151.413ZM1169.04 99.7281V336H1214.31V244.042H1215.69C1217.74 248.815 1220.72 253.551 1224.61 258.25C1228.51 262.874 1233.5 266.714 1239.59 269.772C1245.75 272.83 1253.23 274.359 1262.01 274.359C1274.41 274.359 1285.6 271.003 1295.58 264.291C1305.64 257.504 1313.58 247.547 1319.38 234.421C1325.26 221.22 1328.2 205.036 1328.2 185.869C1328.2 166.18 1325.19 149.809 1319.17 136.758C1313.15 123.631 1305.11 113.824 1295.05 107.335C1284.99 100.772 1274.02 97.4907 1262.12 97.4907C1252.98 97.4907 1245.33 99.1315 1239.17 102.413C1233.08 105.62 1228.12 109.647 1224.29 114.495C1220.54 119.268 1217.67 123.967 1215.69 128.591H1213.67V99.7281H1169.04ZM1217.39 212.382C1214.7 204.775 1213.35 195.863 1213.35 185.645C1213.35 175.428 1214.7 166.553 1217.39 159.02C1220.08 151.487 1223.94 145.67 1228.97 141.568C1234.07 137.466 1240.3 135.415 1247.67 135.415C1255.1 135.415 1261.37 137.541 1266.47 141.792C1271.57 146.043 1275.43 151.935 1278.05 159.467C1280.67 167 1281.98 175.726 1281.98 185.645C1281.98 195.639 1280.64 204.477 1277.95 212.159C1275.33 219.766 1271.47 225.732 1266.37 230.058C1261.27 234.309 1255.03 236.435 1247.67 236.435C1240.37 236.435 1234.17 234.346 1229.07 230.17C1223.97 225.919 1220.08 219.99 1217.39 212.382ZM1421.4 271.562H1344.27V42.4501H1422.04C1443.93 42.4501 1462.77 47.0369 1478.56 56.2103C1494.36 65.3091 1506.5 78.398 1515 95.4771C1523.57 112.556 1527.86 132.991 1527.86 156.782C1527.86 180.648 1523.57 201.158 1515 218.312C1506.5 235.465 1494.29 248.629 1478.35 257.802C1462.48 266.975 1443.5 271.562 1421.4 271.562ZM1390.27 230.058H1419.49C1433.09 230.058 1444.53 227.522 1453.81 222.451C1463.16 217.305 1470.17 209.362 1474.84 198.622C1479.59 187.808 1481.96 173.861 1481.96 156.782C1481.96 139.853 1479.59 126.018 1474.84 115.278C1470.17 104.539 1463.19 96.633 1453.91 91.5616C1444.63 86.4901 1433.19 83.9543 1419.59 83.9543H1390.27V230.058ZM1764.83 99.7281L1707.78 271.562H1656.78L1599.72 99.7281H1647.54L1681.43 222.675H1683.13L1716.91 99.7281H1764.83ZM1798.8 264.179C1810.91 271.338 1825.36 274.918 1842.15 274.918C1855.61 274.918 1867.47 272.756 1877.74 268.43C1888.08 264.03 1896.51 257.914 1903.03 250.083C1909.61 242.177 1913.97 232.929 1916.09 222.339L1874.23 219.43C1872.68 223.756 1870.41 227.41 1867.43 230.394C1864.46 233.377 1860.88 235.614 1856.7 237.106C1852.52 238.598 1847.92 239.343 1842.89 239.343C1835.31 239.343 1828.76 237.665 1823.24 234.309C1817.71 230.953 1813.43 226.18 1810.38 219.99C1807.4 213.799 1805.92 206.453 1805.92 197.951V197.839H1917.05V184.75C1917.05 170.132 1915.1 157.379 1911.21 146.49C1907.31 135.527 1901.86 126.428 1894.85 119.194C1887.9 111.959 1879.76 106.552 1870.41 102.972C1861.13 99.318 1851.11 97.4907 1840.34 97.4907C1824.33 97.4907 1810.38 101.22 1798.48 108.678C1786.65 116.136 1777.48 126.54 1770.96 139.89C1764.45 153.24 1761.19 168.753 1761.19 186.428C1761.19 204.551 1764.45 220.251 1770.96 233.526C1777.48 246.727 1786.76 256.944 1798.8 264.179ZM1805.96 168.305C1806.23 162.135 1807.74 156.504 1810.49 151.413C1813.46 145.819 1817.57 141.381 1822.81 138.1C1828.12 134.744 1834.21 133.066 1841.08 133.066C1847.67 133.066 1853.44 134.595 1858.4 137.652C1863.43 140.636 1867.36 144.775 1870.2 150.07C1873.03 155.365 1874.45 161.444 1874.45 168.305H1805.96ZM1914.19 49.9604V41.9728H1949.93V49.9604H1936.61V87.7952H1927.51V49.9604H1914.19ZM1964.17 41.9728H1952.83V87.7952H1961.75V57.8585H1962.11L1973.37 87.5715H1979.45L1990.71 57.9704H1991.08V87.7952H2000V41.9728H1988.65L1976.67 72.7598H1976.16L1964.17 41.9728ZM1036.22 264.179C1048.33 271.339 1062.78 274.918 1079.56 274.918C1093.02 274.918 1104.89 272.756 1115.16 268.43C1125.5 264.03 1133.93 257.914 1140.44 250.083C1147.03 242.177 1151.39 232.929 1153.51 222.339L1111.65 219.43C1110.09 223.756 1107.83 227.41 1104.85 230.394C1101.88 233.377 1098.3 235.614 1094.12 237.106C1089.94 238.598 1085.34 239.343 1080.31 239.343C1072.73 239.343 1066.18 237.665 1060.65 234.309C1055.13 230.953 1050.84 226.18 1047.8 219.99C1044.82 213.799 1043.33 206.453 1043.33 197.951V197.839H1154.47V184.75C1154.47 170.132 1152.52 157.379 1148.62 146.49C1144.73 135.527 1139.27 126.428 1132.26 119.194C1125.32 111.959 1117.17 106.552 1107.83 102.973C1098.55 99.318 1088.52 97.4908 1077.76 97.4908C1061.75 97.4908 1047.8 101.22 1035.9 108.678C1024.07 116.136 1014.9 126.54 1008.38 139.89C1001.86 153.24 998.604 168.753 998.604 186.428C998.604 204.551 1001.86 220.251 1008.38 233.526C1014.9 246.727 1024.17 256.944 1036.22 264.179ZM1111.86 168.305H1043.38C1043.65 162.135 1045.16 156.504 1047.9 151.413C1050.88 145.819 1054.99 141.382 1060.23 138.1C1065.54 134.744 1071.63 133.066 1078.5 133.066C1085.09 133.066 1090.86 134.595 1095.82 137.653C1100.85 140.636 1104.78 144.775 1107.61 150.07C1110.45 155.365 1111.86 161.444 1111.86 168.305Z" fill="#242424"/>
</svg>